STARTFONT 2.1
COMMENT Sources:
COMMENT -Misc-Fixed-Medium-R-Normal--10-100-75-75-C-60-ISO10646-1 $ucs-fonts: 6x10.bdf,v 1.35 2006-01-05 20:03:17+00 mgk25 Rel $
COMMENT -windows-proggytiny-medium-r-normal--10-72-100-100-c-0-iso8859-1
FONT -dylex-terminal-Medium-O-Normal--10-100-75-75-C-60-ISO10646-1
SIZE 10 75 75
FONTBOUNDINGBOX 6 10 0 -2
STARTPROPERTIES 22
FONTNAME_REGISTRY ""
FOUNDRY "Misc"
FAMILY_NAME "Fixed"
WEIGHT_NAME "Medium"
SLANT "O"
SETWIDTH_NAME "Normal"
ADD_STYLE_NAME ""
PIXEL_SIZE 10
POINT_SIZE 100
RESOLUTION_X 75
RESOLUTION_Y 75
SPACING "C"
AVERAGE_WIDTH 60
CHARSET_REGISTRY "ISO10646"
CHARSET_ENCODING "1"
FONT_ASCENT 8
FONT_DESCENT 2
DEFAULT_CHAR 0
COPYRIGHT "Public domain terminal emulator font.  Share and enjoy."
CAP_HEIGHT 7
X_HEIGHT 5
_GBDFED_INFO "Edited with gbdfed 1.6."
ENDPROPERTIES
CHARS 256
STARTCHAR char0
ENCODING 0
SWIDTH 576 0
DWIDTH 6 0
BBX 6 10 0 -2
BITMAP
00
50
08
40
08
80
10
80
50
00
ENDCHAR
STARTCHAR char1
ENCODING 1
SWIDTH 576 0
DWIDTH 6 0
BBX 6 10 0 -2
BITMAP
00
00
20
50
88
50
20
00
00
00
ENDCHAR
STARTCHAR shade
ENCODING 2
SWIDTH 576 0
DWIDTH 6 0
BBX 6 10 0 -2
BITMAP
00
54
00
A8
00
54
00
A8
00
54
ENDCHAR
STARTCHAR uni2409
ENCODING 3
SWIDTH 576 0
DWIDTH 6 0
BBX 6 10 0 -2
BITMAP
00
90
90
F0
90
90
78
10
10
10
ENDCHAR
STARTCHAR uni240C
ENCODING 4
SWIDTH 576 0
DWIDTH 6 0
BBX 6 10 0 -2
BITMAP
00
E0
80
C0
80
B8
20
30
20
20
ENDCHAR
STARTCHAR uni240D
ENCODING 5
SWIDTH 576 0
DWIDTH 6 0
BBX 6 10 0 -2
BITMAP
00
70
80
80
70
70
48
70
48
48
ENDCHAR
STARTCHAR uni240A
ENCODING 6
SWIDTH 576 0
DWIDTH 6 0
BBX 6 10 0 -2
BITMAP
00
80
80
80
F0
78
40
70
40
40
ENDCHAR
STARTCHAR char176
ENCODING 7
SWIDTH 576 0
DWIDTH 6 0
BBX 6 10 0 -2
BITMAP
00
20
50
20
00
00
00
00
00
00
ENDCHAR
STARTCHAR char8
ENCODING 8
SWIDTH 576 0
DWIDTH 6 0
BBX 6 10 0 -2
BITMAP
00
00
10
10
FC
20
20
00
F8
00
ENDCHAR
STARTCHAR uni2424
ENCODING 9
SWIDTH 576 0
DWIDTH 6 0
BBX 6 10 0 -2
BITMAP
00
90
D0
D0
B0
90
40
40
40
78
ENDCHAR
STARTCHAR uni240B
ENCODING 10
SWIDTH 576 0
DWIDTH 6 0
BBX 6 10 0 -2
BITMAP
00
90
90
60
40
78
10
10
10
10
ENDCHAR
STARTCHAR char11
ENCODING 11
SWIDTH 576 0
DWIDTH 6 0
BBX 6 10 0 -2
BITMAP
20
20
20
20
E0
00
00
00
00
00
ENDCHAR
STARTCHAR char12
ENCODING 12
SWIDTH 576 0
DWIDTH 6 0
BBX 6 10 0 -2
BITMAP
00
00
00
00
E0
20
20
20
20
20
ENDCHAR
STARTCHAR char13
ENCODING 13
SWIDTH 576 0
DWIDTH 6 0
BBX 6 10 0 -2
BITMAP
00
00
00
00
3C
20
20
20
20
20
ENDCHAR
STARTCHAR char14
ENCODING 14
SWIDTH 576 0
DWIDTH 6 0
BBX 6 10 0 -2
BITMAP
20
20
20
20
3C
00
00
00
00
00
ENDCHAR
STARTCHAR char15
ENCODING 15
SWIDTH 576 0
DWIDTH 6 0
BBX 6 10 0 -2
BITMAP
20
20
20
20
FC
20
20
20
20
20
ENDCHAR
STARTCHAR char16
ENCODING 16
SWIDTH 576 0
DWIDTH 6 0
BBX 6 10 0 -2
BITMAP
FC
00
00
00
00
00
00
00
00
00
ENDCHAR
STARTCHAR char17
ENCODING 17
SWIDTH 576 0
DWIDTH 6 0
BBX 6 10 0 -2
BITMAP
00
00
FC
00
00
00
00
00
00
00
ENDCHAR
STARTCHAR char18
ENCODING 18
SWIDTH 576 0
DWIDTH 6 0
BBX 6 10 0 -2
BITMAP
00
00
00
00
FC
00
00
00
00
00
ENDCHAR
STARTCHAR char19
ENCODING 19
SWIDTH 576 0
DWIDTH 6 0
BBX 6 10 0 -2
BITMAP
00
00
00
00
00
00
FC
00
00
00
ENDCHAR
STARTCHAR char20
ENCODING 20
SWIDTH 576 0
DWIDTH 6 0
BBX 6 10 0 -2
BITMAP
00
00
00
00
00
00
00
00
00
FC
ENDCHAR
STARTCHAR char21
ENCODING 21
SWIDTH 576 0
DWIDTH 6 0
BBX 6 10 0 -2
BITMAP
20
20
20
20
3C
20
20
20
20
20
ENDCHAR
STARTCHAR char22
ENCODING 22
SWIDTH 576 0
DWIDTH 6 0
BBX 6 10 0 -2
BITMAP
20
20
20
20
E0
20
20
20
20
20
ENDCHAR
STARTCHAR char23
ENCODING 23
SWIDTH 576 0
DWIDTH 6 0
BBX 6 10 0 -2
BITMAP
20
20
20
20
FC
00
00
00
00
00
ENDCHAR
STARTCHAR char24
ENCODING 24
SWIDTH 576 0
DWIDTH 6 0
BBX 6 10 0 -2
BITMAP
00
00
00
00
FC
20
20
20
20
20
ENDCHAR
STARTCHAR char26
ENCODING 25
SWIDTH 576 0
DWIDTH 6 0
BBX 6 10 0 -2
BITMAP
20
20
20
20
20
20
20
20
20
20
ENDCHAR
STARTCHAR lessequal
ENCODING 26
SWIDTH 576 0
DWIDTH 6 0
BBX 6 10 0 -2
BITMAP
00
0C
30
40
30
18
00
F8
00
00
ENDCHAR
STARTCHAR greaterequal
ENCODING 27
SWIDTH 576 0
DWIDTH 6 0
BBX 6 10 0 -2
BITMAP
00
60
18
04
38
C0
00
F8
00
00
ENDCHAR
STARTCHAR pi
ENCODING 28
SWIDTH 576 0
DWIDTH 6 0
BBX 6 10 0 -2
BITMAP
00
00
00
7C
28
50
50
50
00
00
ENDCHAR
STARTCHAR notequal
ENCODING 29
SWIDTH 576 0
DWIDTH 6 0
BBX 6 10 0 -2
BITMAP
00
04
08
7C
10
F8
40
80
00
00
ENDCHAR
STARTCHAR char163
ENCODING 30
SWIDTH 576 0
DWIDTH 6 0
BBX 6 10 0 -2
BITMAP
0C
10
10
7C
20
40
80
F8
00
00
ENDCHAR
STARTCHAR char31
ENCODING 31
SWIDTH 576 0
DWIDTH 6 0
BBX 6 10 0 -2
BITMAP
00
00
00
00
70
00
00
00
00
00
ENDCHAR
STARTCHAR space
ENCODING 32
SWIDTH 576 0
DWIDTH 6 0
BBX 6 10 0 -2
BITMAP
00
00
00
00
00
00
00
00
00
00
ENDCHAR
STARTCHAR char33
ENCODING 33
SWIDTH 576 0
DWIDTH 6 0
BBX 6 10 0 -2
BITMAP
00
10
10
10
10
20
00
20
00
00
ENDCHAR
STARTCHAR char34
ENCODING 34
SWIDTH 576 0
DWIDTH 6 0
BBX 6 10 0 -2
BITMAP
50
50
50
00
00
00
00
00
00
00
ENDCHAR
STARTCHAR char35
ENCODING 35
SWIDTH 576 0
DWIDTH 6 0
BBX 6 10 0 -2
BITMAP
00
00
28
7C
28
50
F8
50
00
00
ENDCHAR
STARTCHAR char36
ENCODING 36
SWIDTH 576 0
DWIDTH 6 0
BBX 6 10 0 -2
BITMAP
00
10
3C
50
38
28
F0
20
00
00
ENDCHAR
STARTCHAR char37
ENCODING 37
SWIDTH 576 0
DWIDTH 6 0
BBX 6 10 0 -2
BITMAP
00
00
64
C8
10
20
4C
98
00
00
ENDCHAR
STARTCHAR char38
ENCODING 38
SWIDTH 576 0
DWIDTH 6 0
BBX 6 10 0 -2
BITMAP
00
18
24
48
30
4C
88
74
00
00
ENDCHAR
STARTCHAR char39
ENCODING 39
SWIDTH 576 0
DWIDTH 6 0
BBX 6 10 0 -2
BITMAP
20
20
20
00
00
00
00
00
00
00
ENDCHAR
STARTCHAR char40
ENCODING 40
SWIDTH 576 0
DWIDTH 6 0
BBX 6 10 0 -2
BITMAP
08
10
20
20
40
40
40
20
10
00
ENDCHAR
STARTCHAR char41
ENCODING 41
SWIDTH 576 0
DWIDTH 6 0
BBX 6 10 0 -2
BITMAP
20
10
08
08
08
10
10
20
40
00
ENDCHAR
STARTCHAR char42
ENCODING 42
SWIDTH 576 0
DWIDTH 6 0
BBX 6 10 0 -2
BITMAP
00
00
10
54
38
A8
20
00
00
00
ENDCHAR
STARTCHAR char43
ENCODING 43
SWIDTH 576 0
DWIDTH 6 0
BBX 6 10 0 -2
BITMAP
00
00
10
10
FC
20
20
00
00
00
ENDCHAR
STARTCHAR char44
ENCODING 44
SWIDTH 576 0
DWIDTH 6 0
BBX 6 10 0 -2
BITMAP
00
00
00
00
00
00
00
20
40
00
ENDCHAR
STARTCHAR char45
ENCODING 45
SWIDTH 576 0
DWIDTH 6 0
BBX 6 10 0 -2
BITMAP
00
00
00
00
7C
00
00
00
00
00
ENDCHAR
STARTCHAR char46
ENCODING 46
SWIDTH 576 0
DWIDTH 6 0
BBX 6 10 0 -2
BITMAP
00
00
00
00
00
00
00
20
00
00
ENDCHAR
STARTCHAR char47
ENCODING 47
SWIDTH 576 0
DWIDTH 6 0
BBX 6 10 0 -2
BITMAP
04
04
08
10
10
20
40
40
80
00
ENDCHAR
STARTCHAR char48
ENCODING 48
SWIDTH 576 0
DWIDTH 6 0
BBX 6 10 0 -2
BITMAP
00
38
44
44
54
88
88
70
00
00
ENDCHAR
STARTCHAR char49
ENCODING 49
SWIDTH 576 0
DWIDTH 6 0
BBX 6 10 0 -2
BITMAP
00
10
30
10
10
20
20
70
00
00
ENDCHAR
STARTCHAR char50
ENCODING 50
SWIDTH 576 0
DWIDTH 6 0
BBX 6 10 0 -2
BITMAP
00
38
44
08
30
40
80
F8
00
00
ENDCHAR
STARTCHAR char51
ENCODING 51
SWIDTH 576 0
DWIDTH 6 0
BBX 6 10 0 -2
BITMAP
00
38
44
04
18
08
88
70
00
00
ENDCHAR
STARTCHAR char52
ENCODING 52
SWIDTH 576 0
DWIDTH 6 0
BBX 6 10 0 -2
BITMAP
00
08
18
28
48
F8
10
10
00
00
ENDCHAR
STARTCHAR char53
ENCODING 53
SWIDTH 576 0
DWIDTH 6 0
BBX 6 10 0 -2
BITMAP
00
7C
40
40
78
08
88
70
00
00
ENDCHAR
STARTCHAR char54
ENCODING 54
SWIDTH 576 0
DWIDTH 6 0
BBX 6 10 0 -2
BITMAP
00
18
20
40
78
88
88
70
00
00
ENDCHAR
STARTCHAR char55
ENCODING 55
SWIDTH 576 0
DWIDTH 6 0
BBX 6 10 0 -2
BITMAP
00
7C
04
08
08
20
20
40
00
00
ENDCHAR
STARTCHAR char56
ENCODING 56
SWIDTH 576 0
DWIDTH 6 0
BBX 6 10 0 -2
BITMAP
00
38
44
44
38
88
88
70
00
00
ENDCHAR
STARTCHAR char57
ENCODING 57
SWIDTH 576 0
DWIDTH 6 0
BBX 6 10 0 -2
BITMAP
00
38
44
44
3C
08
10
60
00
00
ENDCHAR
STARTCHAR char58
ENCODING 58
SWIDTH 576 0
DWIDTH 6 0
BBX 6 10 0 -2
BITMAP
00
00
00
10
00
00
20
00
00
00
ENDCHAR
STARTCHAR char59
ENCODING 59
SWIDTH 576 0
DWIDTH 6 0
BBX 6 10 0 -2
BITMAP
00
00
00
10
00
00
20
40
00
00
ENDCHAR
STARTCHAR char60
ENCODING 60
SWIDTH 576 0
DWIDTH 6 0
BBX 6 10 0 -2
BITMAP
00
00
04
18
60
10
08
00
00
00
ENDCHAR
STARTCHAR char61
ENCODING 61
SWIDTH 576 0
DWIDTH 6 0
BBX 6 10 0 -2
BITMAP
00
00
00
7C
00
F8
00
00
00
00
ENDCHAR
STARTCHAR char62
ENCODING 62
SWIDTH 576 0
DWIDTH 6 0
BBX 6 10 0 -2
BITMAP
00
00
40
30
0C
70
80
00
00
00
ENDCHAR
STARTCHAR char63
ENCODING 63
SWIDTH 576 0
DWIDTH 6 0
BBX 6 10 0 -2
BITMAP
00
38
44
08
10
20
00
20
00
00
ENDCHAR
STARTCHAR char64
ENCODING 64
SWIDTH 576 0
DWIDTH 6 0
BBX 6 10 0 -2
BITMAP
00
38
44
54
54
B8
80
78
00
00
ENDCHAR
STARTCHAR char65
ENCODING 65
SWIDTH 576 0
DWIDTH 6 0
BBX 6 10 0 -2
BITMAP
00
10
10
28
28
70
88
88
00
00
ENDCHAR
STARTCHAR char66
ENCODING 66
SWIDTH 576 0
DWIDTH 6 0
BBX 6 10 0 -2
BITMAP
00
78
44
44
78
88
88
F0
00
00
ENDCHAR
STARTCHAR char67
ENCODING 67
SWIDTH 576 0
DWIDTH 6 0
BBX 6 10 0 -2
BITMAP
00
38
44
40
40
80
88
70
00
00
ENDCHAR
STARTCHAR char68
ENCODING 68
SWIDTH 576 0
DWIDTH 6 0
BBX 6 10 0 -2
BITMAP
00
70
48
44
44
88
90
E0
00
00
ENDCHAR
STARTCHAR char69
ENCODING 69
SWIDTH 576 0
DWIDTH 6 0
BBX 6 10 0 -2
BITMAP
00
7C
40
40
78
80
80
F8
00
00
ENDCHAR
STARTCHAR char70
ENCODING 70
SWIDTH 576 0
DWIDTH 6 0
BBX 6 10 0 -2
BITMAP
00
7C
40
40
78
80
80
80
00
00
ENDCHAR
STARTCHAR char71
ENCODING 71
SWIDTH 576 0
DWIDTH 6 0
BBX 6 10 0 -2
BITMAP
00
38
44
40
4C
88
88
78
00
00
ENDCHAR
STARTCHAR char72
ENCODING 72
SWIDTH 576 0
DWIDTH 6 0
BBX 6 10 0 -2
BITMAP
00
44
44
44
7C
88
88
88
00
00
ENDCHAR
STARTCHAR char73
ENCODING 73
SWIDTH 576 0
DWIDTH 6 0
BBX 6 10 0 -2
BITMAP
00
38
10
10
10
20
20
70
00
00
ENDCHAR
STARTCHAR char74
ENCODING 74
SWIDTH 576 0
DWIDTH 6 0
BBX 6 10 0 -2
BITMAP
00
1C
04
04
04
08
08
F0
00
00
ENDCHAR
STARTCHAR char75
ENCODING 75
SWIDTH 576 0
DWIDTH 6 0
BBX 6 10 0 -2
BITMAP
00
44
48
50
60
A0
90
88
00
00
ENDCHAR
STARTCHAR char76
ENCODING 76
SWIDTH 576 0
DWIDTH 6 0
BBX 6 10 0 -2
BITMAP
00
40
40
40
40
80
80
F8
00
00
ENDCHAR
STARTCHAR char77
ENCODING 77
SWIDTH 576 0
DWIDTH 6 0
BBX 6 10 0 -2
BITMAP
00
44
44
6C
6C
A8
A8
88
00
00
ENDCHAR
STARTCHAR char78
ENCODING 78
SWIDTH 576 0
DWIDTH 6 0
BBX 6 10 0 -2
BITMAP
00
64
64
54
54
A8
98
98
00
00
ENDCHAR
STARTCHAR char79
ENCODING 79
SWIDTH 576 0
DWIDTH 6 0
BBX 6 10 0 -2
BITMAP
00
38
44
44
44
88
88
70
00
00
ENDCHAR
STARTCHAR char80
ENCODING 80
SWIDTH 576 0
DWIDTH 6 0
BBX 6 10 0 -2
BITMAP
00
78
44
44
78
80
80
80
00
00
ENDCHAR
STARTCHAR char81
ENCODING 81
SWIDTH 576 0
DWIDTH 6 0
BBX 6 10 0 -2
BITMAP
00
38
44
44
44
88
98
78
00
00
ENDCHAR
STARTCHAR char82
ENCODING 82
SWIDTH 576 0
DWIDTH 6 0
BBX 6 10 0 -2
BITMAP
00
78
44
44
78
88
88
88
00
00
ENDCHAR
STARTCHAR char83
ENCODING 83
SWIDTH 576 0
DWIDTH 6 0
BBX 6 10 0 -2
BITMAP
00
38
44
40
38
08
88
70
00
00
ENDCHAR
STARTCHAR char84
ENCODING 84
SWIDTH 576 0
DWIDTH 6 0
BBX 6 10 0 -2
BITMAP
00
7C
10
10
10
20
20
20
00
00
ENDCHAR
STARTCHAR char85
ENCODING 85
SWIDTH 576 0
DWIDTH 6 0
BBX 6 10 0 -2
BITMAP
00
44
44
44
44
88
88
70
00
00
ENDCHAR
STARTCHAR char86
ENCODING 86
SWIDTH 576 0
DWIDTH 6 0
BBX 6 10 0 -2
BITMAP
00
44
44
44
48
50
50
20
00
00
ENDCHAR
STARTCHAR char87
ENCODING 87
SWIDTH 576 0
DWIDTH 6 0
BBX 6 10 0 -2
BITMAP
00
44
54
54
54
78
50
50
00
00
ENDCHAR
STARTCHAR char88
ENCODING 88
SWIDTH 576 0
DWIDTH 6 0
BBX 6 10 0 -2
BITMAP
00
44
44
28
30
50
88
88
00
00
ENDCHAR
STARTCHAR char89
ENCODING 89
SWIDTH 576 0
DWIDTH 6 0
BBX 6 10 0 -2
BITMAP
00
44
44
48
30
20
40
40
00
00
ENDCHAR
STARTCHAR char90
ENCODING 90
SWIDTH 576 0
DWIDTH 6 0
BBX 6 10 0 -2
BITMAP
00
7C
08
10
20
40
80
F8
00
00
ENDCHAR
STARTCHAR char91
ENCODING 91
SWIDTH 576 0
DWIDTH 6 0
BBX 6 10 0 -2
BITMAP
38
20
20
20
20
40
40
40
70
00
ENDCHAR
STARTCHAR char92
ENCODING 92
SWIDTH 576 0
DWIDTH 6 0
BBX 6 10 0 -2
BITMAP
40
40
20
20
20
10
10
10
08
00
ENDCHAR
STARTCHAR char93
ENCODING 93
SWIDTH 576 0
DWIDTH 6 0
BBX 6 10 0 -2
BITMAP
38
08
08
08
08
10
10
10
70
00
ENDCHAR
STARTCHAR char94
ENCODING 94
SWIDTH 576 0
DWIDTH 6 0
BBX 6 10 0 -2
BITMAP
00
10
28
48
00
00
00
00
00
00
ENDCHAR
STARTCHAR char95
ENCODING 95
SWIDTH 576 0
DWIDTH 6 0
BBX 6 10 0 -2
BITMAP
00
00
00
00
00
00
00
00
FC
00
ENDCHAR
STARTCHAR char96
ENCODING 96
SWIDTH 576 0
DWIDTH 6 0
BBX 6 10 0 -2
BITMAP
00
10
08
00
00
00
00
00
00
00
ENDCHAR
STARTCHAR char97
ENCODING 97
SWIDTH 576 0
DWIDTH 6 0
BBX 6 10 0 -2
BITMAP
00
00
00
38
04
78
88
78
00
00
ENDCHAR
STARTCHAR char98
ENCODING 98
SWIDTH 576 0
DWIDTH 6 0
BBX 6 10 0 -2
BITMAP
40
40
40
78
44
88
88
F0
00
00
ENDCHAR
STARTCHAR char99
ENCODING 99
SWIDTH 576 0
DWIDTH 6 0
BBX 6 10 0 -2
BITMAP
00
00
00
3C
40
80
80
78
00
00
ENDCHAR
STARTCHAR char100
ENCODING 100
SWIDTH 576 0
DWIDTH 6 0
BBX 6 10 0 -2
BITMAP
04
04
04
3C
44
88
88
78
00
00
ENDCHAR
STARTCHAR char101
ENCODING 101
SWIDTH 576 0
DWIDTH 6 0
BBX 6 10 0 -2
BITMAP
00
00
00
38
44
F8
80
78
00
00
ENDCHAR
STARTCHAR char102
ENCODING 102
SWIDTH 576 0
DWIDTH 6 0
BBX 6 10 0 -2
BITMAP
1C
20
20
78
20
40
40
40
00
00
ENDCHAR
STARTCHAR char103
ENCODING 103
SWIDTH 576 0
DWIDTH 6 0
BBX 6 10 0 -2
BITMAP
00
00
00
38
44
88
88
78
08
70
ENDCHAR
STARTCHAR char104
ENCODING 104
SWIDTH 576 0
DWIDTH 6 0
BBX 6 10 0 -2
BITMAP
40
40
40
78
44
88
88
88
00
00
ENDCHAR
STARTCHAR char105
ENCODING 105
SWIDTH 576 0
DWIDTH 6 0
BBX 6 10 0 -2
BITMAP
00
10
00
30
10
20
20
20
00
00
ENDCHAR
STARTCHAR char106
ENCODING 106
SWIDTH 576 0
DWIDTH 6 0
BBX 6 10 0 -2
BITMAP
00
08
00
18
08
10
10
10
10
E0
ENDCHAR
STARTCHAR char107
ENCODING 107
SWIDTH 576 0
DWIDTH 6 0
BBX 6 10 0 -2
BITMAP
20
20
20
24
58
60
50
48
00
00
ENDCHAR
STARTCHAR char108
ENCODING 108
SWIDTH 576 0
DWIDTH 6 0
BBX 6 10 0 -2
BITMAP
30
10
10
10
10
20
20
20
00
00
ENDCHAR
STARTCHAR char109
ENCODING 109
SWIDTH 576 0
DWIDTH 6 0
BBX 6 10 0 -2
BITMAP
00
00
00
68
54
A8
A8
A8
00
00
ENDCHAR
STARTCHAR char110
ENCODING 110
SWIDTH 576 0
DWIDTH 6 0
BBX 6 10 0 -2
BITMAP
00
00
00
78
44
88
88
88
00
00
ENDCHAR
STARTCHAR char111
ENCODING 111
SWIDTH 576 0
DWIDTH 6 0
BBX 6 10 0 -2
BITMAP
00
00
00
38
44
88
88
70
00
00
ENDCHAR
STARTCHAR char112
ENCODING 112
SWIDTH 576 0
DWIDTH 6 0
BBX 6 10 0 -2
BITMAP
00
00
00
78
44
88
88
F0
80
80
ENDCHAR
STARTCHAR char113
ENCODING 113
SWIDTH 576 0
DWIDTH 6 0
BBX 6 10 0 -2
BITMAP
00
00
00
3C
44
88
88
78
08
08
ENDCHAR
STARTCHAR char114
ENCODING 114
SWIDTH 576 0
DWIDTH 6 0
BBX 6 10 0 -2
BITMAP
00
00
00
58
64
80
80
80
00
00
ENDCHAR
STARTCHAR char115
ENCODING 115
SWIDTH 576 0
DWIDTH 6 0
BBX 6 10 0 -2
BITMAP
00
00
00
3C
40
70
08
F0
00
00
ENDCHAR
STARTCHAR char116
ENCODING 116
SWIDTH 576 0
DWIDTH 6 0
BBX 6 10 0 -2
BITMAP
00
20
20
38
20
40
40
38
00
00
ENDCHAR
STARTCHAR char117
ENCODING 117
SWIDTH 576 0
DWIDTH 6 0
BBX 6 10 0 -2
BITMAP
00
00
00
44
44
88
88
78
00
00
ENDCHAR
STARTCHAR char118
ENCODING 118
SWIDTH 576 0
DWIDTH 6 0
BBX 6 10 0 -2
BITMAP
00
00
00
44
44
48
50
20
00
00
ENDCHAR
STARTCHAR char119
ENCODING 119
SWIDTH 576 0
DWIDTH 6 0
BBX 6 10 0 -2
BITMAP
00
00
00
44
54
54
78
50
00
00
ENDCHAR
STARTCHAR char120
ENCODING 120
SWIDTH 576 0
DWIDTH 6 0
BBX 6 10 0 -2
BITMAP
00
00
00
44
28
30
50
88
00
00
ENDCHAR
STARTCHAR char121
ENCODING 121
SWIDTH 576 0
DWIDTH 6 0
BBX 6 10 0 -2
BITMAP
00
00
00
44
44
88
88
78
08
70
ENDCHAR
STARTCHAR char122
ENCODING 122
SWIDTH 576 0
DWIDTH 6 0
BBX 6 10 0 -2
BITMAP
00
00
00
7C
08
30
40
F8
00
00
ENDCHAR
STARTCHAR char123
ENCODING 123
SWIDTH 576 0
DWIDTH 6 0
BBX 6 10 0 -2
BITMAP
08
10
10
10
20
20
20
20
10
00
ENDCHAR
STARTCHAR char124
ENCODING 124
SWIDTH 576 0
DWIDTH 6 0
BBX 6 10 0 -2
BITMAP
10
10
10
10
10
20
20
20
20
00
ENDCHAR
STARTCHAR char125
ENCODING 125
SWIDTH 576 0
DWIDTH 6 0
BBX 6 10 0 -2
BITMAP
20
10
10
10
10
20
20
20
40
00
ENDCHAR
STARTCHAR char126
ENCODING 126
SWIDTH 576 0
DWIDTH 6 0
BBX 6 10 0 -2
BITMAP
00
00
00
00
64
98
00
00
00
00
ENDCHAR
STARTCHAR char127
ENCODING 127
SWIDTH 576 0
DWIDTH 6 0
BBX 6 10 0 -2
BITMAP
00
00
00
00
00
00
00
00
00
00
ENDCHAR
STARTCHAR char128
ENCODING 128
SWIDTH 576 0
DWIDTH 6 0
BBX 6 10 0 -2
BITMAP
00
38
44
F0
40
E0
88
70
00
00
ENDCHAR
STARTCHAR char129
ENCODING 129
SWIDTH 576 0
DWIDTH 6 0
BBX 6 10 0 -2
BITMAP
00
00
00
00
00
00
00
00
00
00
ENDCHAR
STARTCHAR char130
ENCODING 130
SWIDTH 576 0
DWIDTH 6 0
BBX 6 10 0 -2
BITMAP
00
00
00
00
00
00
00
10
20
00
ENDCHAR
STARTCHAR char131
ENCODING 131
SWIDTH 576 0
DWIDTH 6 0
BBX 6 10 0 -2
BITMAP
0C
10
10
38
10
20
20
20
20
40
ENDCHAR
STARTCHAR char132
ENCODING 132
SWIDTH 576 0
DWIDTH 6 0
BBX 6 10 0 -2
BITMAP
00
00
00
00
00
00
00
50
50
00
ENDCHAR
STARTCHAR char133
ENCODING 133
SWIDTH 576 0
DWIDTH 6 0
BBX 6 10 0 -2
BITMAP
00
00
00
00
00
00
00
A8
00
00
ENDCHAR
STARTCHAR char134
ENCODING 134
SWIDTH 576 0
DWIDTH 6 0
BBX 6 10 0 -2
BITMAP
10
10
7C
10
10
20
20
20
20
00
ENDCHAR
STARTCHAR char135
ENCODING 135
SWIDTH 576 0
DWIDTH 6 0
BBX 6 10 0 -2
BITMAP
10
10
7C
10
F8
20
20
20
20
00
ENDCHAR
STARTCHAR char136
ENCODING 136
SWIDTH 576 0
DWIDTH 6 0
BBX 6 10 0 -2
BITMAP
20
50
00
00
00
00
00
00
00
00
ENDCHAR
STARTCHAR char137
ENCODING 137
SWIDTH 576 0
DWIDTH 6 0
BBX 6 10 0 -2
BITMAP
00
00
24
08
30
40
94
00
00
00
ENDCHAR
STARTCHAR char138
ENCODING 138
SWIDTH 576 0
DWIDTH 6 0
BBX 6 10 0 -2
BITMAP
28
10
00
3C
40
F8
08
F0
00
00
ENDCHAR
STARTCHAR char139
ENCODING 139
SWIDTH 576 0
DWIDTH 6 0
BBX 6 10 0 -2
BITMAP
00
00
00
08
10
20
20
10
00
00
ENDCHAR
STARTCHAR char140
ENCODING 140
SWIDTH 576 0
DWIDTH 6 0
BBX 6 10 0 -2
BITMAP
00
2C
50
50
58
A0
A0
58
00
00
ENDCHAR
STARTCHAR char141
ENCODING 141
SWIDTH 576 0
DWIDTH 6 0
BBX 6 10 0 -2
BITMAP
00
00
00
00
00
00
00
00
00
00
ENDCHAR
STARTCHAR char142
ENCODING 142
SWIDTH 576 0
DWIDTH 6 0
BBX 6 10 0 -2
BITMAP
28
10
00
7C
08
30
40
F8
00
00
ENDCHAR
STARTCHAR char143
ENCODING 143
SWIDTH 576 0
DWIDTH 6 0
BBX 6 10 0 -2
BITMAP
00
00
00
00
00
00
00
00
00
00
ENDCHAR
STARTCHAR char144
ENCODING 144
SWIDTH 576 0
DWIDTH 6 0
BBX 6 10 0 -2
BITMAP
00
00
00
00
00
00
00
00
00
00
ENDCHAR
STARTCHAR char145
ENCODING 145
SWIDTH 576 0
DWIDTH 6 0
BBX 6 10 0 -2
BITMAP
20
20
10
00
00
00
00
00
00
00
ENDCHAR
STARTCHAR char146
ENCODING 146
SWIDTH 576 0
DWIDTH 6 0
BBX 6 10 0 -2
BITMAP
10
10
20
00
00
00
00
00
00
00
ENDCHAR
STARTCHAR char147
ENCODING 147
SWIDTH 576 0
DWIDTH 6 0
BBX 6 10 0 -2
BITMAP
50
50
28
00
00
00
00
00
00
00
ENDCHAR
STARTCHAR char148
ENCODING 148
SWIDTH 576 0
DWIDTH 6 0
BBX 6 10 0 -2
BITMAP
28
28
50
00
00
00
00
00
00
00
ENDCHAR
STARTCHAR char149
ENCODING 149
SWIDTH 576 0
DWIDTH 6 0
BBX 6 10 0 -2
BITMAP
00
00
00
00
30
30
00
00
00
00
ENDCHAR
STARTCHAR char150
ENCODING 150
SWIDTH 576 0
DWIDTH 6 0
BBX 6 10 0 -2
BITMAP
00
00
00
00
00
F8
00
00
00
00
ENDCHAR
STARTCHAR char151
ENCODING 151
SWIDTH 576 0
DWIDTH 6 0
BBX 6 10 0 -2
BITMAP
00
00
00
00
00
FC
00
00
00
00
ENDCHAR
STARTCHAR char152
ENCODING 152
SWIDTH 576 0
DWIDTH 6 0
BBX 6 10 0 -2
BITMAP
00
00
00
00
28
50
00
00
00
00
ENDCHAR
STARTCHAR char153
ENCODING 153
SWIDTH 576 0
DWIDTH 6 0
BBX 6 10 0 -2
BITMAP
00
00
00
FC
5C
54
54
00
00
00
ENDCHAR
STARTCHAR char154
ENCODING 154
SWIDTH 576 0
DWIDTH 6 0
BBX 6 10 0 -2
BITMAP
28
10
00
3C
40
70
08
F0
00
00
ENDCHAR
STARTCHAR char155
ENCODING 155
SWIDTH 576 0
DWIDTH 6 0
BBX 6 10 0 -2
BITMAP
00
00
00
10
08
08
10
20
00
00
ENDCHAR
STARTCHAR char156
ENCODING 156
SWIDTH 576 0
DWIDTH 6 0
BBX 6 10 0 -2
BITMAP
00
00
00
2C
50
B0
A0
58
00
00
ENDCHAR
STARTCHAR char157
ENCODING 157
SWIDTH 576 0
DWIDTH 6 0
BBX 6 10 0 -2
BITMAP
00
00
00
00
00
00
00
00
00
00
ENDCHAR
STARTCHAR char158
ENCODING 158
SWIDTH 576 0
DWIDTH 6 0
BBX 6 10 0 -2
BITMAP
28
10
00
7C
08
30
40
F8
00
00
ENDCHAR
STARTCHAR char159
ENCODING 159
SWIDTH 576 0
DWIDTH 6 0
BBX 6 10 0 -2
BITMAP
28
00
44
44
48
30
20
20
00
00
ENDCHAR
STARTCHAR char160
ENCODING 160
SWIDTH 576 0
DWIDTH 6 0
BBX 6 10 0 -2
BITMAP
00
00
00
00
00
00
00
00
00
00
ENDCHAR
STARTCHAR char161
ENCODING 161
SWIDTH 576 0
DWIDTH 6 0
BBX 6 10 0 -2
BITMAP
00
10
00
10
10
20
20
20
00
00
ENDCHAR
STARTCHAR char162
ENCODING 162
SWIDTH 576 0
DWIDTH 6 0
BBX 6 10 0 -2
BITMAP
00
00
08
1C
28
50
38
10
00
00
ENDCHAR
STARTCHAR char163
ENCODING 163
SWIDTH 576 0
DWIDTH 6 0
BBX 6 10 0 -2
BITMAP
0C
10
10
78
20
40
80
F8
00
00
ENDCHAR
STARTCHAR char164
ENCODING 164
SWIDTH 576 0
DWIDTH 6 0
BBX 6 10 0 -2
BITMAP
00
00
44
38
28
50
70
88
00
00
ENDCHAR
STARTCHAR char165
ENCODING 165
SWIDTH 576 0
DWIDTH 6 0
BBX 6 10 0 -2
BITMAP
00
44
48
30
20
F8
40
40
00
00
ENDCHAR
STARTCHAR char166
ENCODING 166
SWIDTH 576 0
DWIDTH 6 0
BBX 6 10 0 -2
BITMAP
10
10
10
10
00
20
20
20
20
00
ENDCHAR
STARTCHAR char167
ENCODING 167
SWIDTH 576 0
DWIDTH 6 0
BBX 6 10 0 -2
BITMAP
0C
10
10
38
44
88
70
20
20
C0
ENDCHAR
STARTCHAR char168
ENCODING 168
SWIDTH 576 0
DWIDTH 6 0
BBX 6 10 0 -2
BITMAP
00
50
00
00
00
00
00
00
00
00
ENDCHAR
STARTCHAR char169
ENCODING 169
SWIDTH 576 0
DWIDTH 6 0
BBX 6 10 0 -2
BITMAP
00
38
44
74
C8
E8
88
70
00
00
ENDCHAR
STARTCHAR char170
ENCODING 170
SWIDTH 576 0
DWIDTH 6 0
BBX 6 10 0 -2
BITMAP
20
10
30
50
30
00
00
00
00
00
ENDCHAR
STARTCHAR char171
ENCODING 171
SWIDTH 576 0
DWIDTH 6 0
BBX 6 10 0 -2
BITMAP
00
00
00
24
48
90
90
48
00
00
ENDCHAR
STARTCHAR char172
ENCODING 172
SWIDTH 576 0
DWIDTH 6 0
BBX 6 10 0 -2
BITMAP
00
00
00
00
78
08
10
10
00
00
ENDCHAR
STARTCHAR char173
ENCODING 173
SWIDTH 576 0
DWIDTH 6 0
BBX 6 10 0 -2
BITMAP
00
00
00
00
00
00
00
00
00
00
ENDCHAR
STARTCHAR char174
ENCODING 174
SWIDTH 576 0
DWIDTH 6 0
BBX 6 10 0 -2
BITMAP
00
38
44
5C
A8
A8
88
70
00
00
ENDCHAR
STARTCHAR char175
ENCODING 175
SWIDTH 576 0
DWIDTH 6 0
BBX 6 10 0 -2
BITMAP
00
F8
00
00
00
00
00
00
00
00
ENDCHAR
STARTCHAR char176
ENCODING 176
SWIDTH 576 0
DWIDTH 6 0
BBX 6 10 0 -2
BITMAP
00
20
50
20
00
00
00
00
00
00
ENDCHAR
STARTCHAR char177
ENCODING 177
SWIDTH 576 0
DWIDTH 6 0
BBX 6 10 0 -2
BITMAP
00
00
10
10
FC
20
20
F8
00
00
ENDCHAR
STARTCHAR char178
ENCODING 178
SWIDTH 576 0
DWIDTH 6 0
BBX 6 10 0 -2
BITMAP
60
10
20
40
70
00
00
00
00
00
ENDCHAR
STARTCHAR char179
ENCODING 179
SWIDTH 576 0
DWIDTH 6 0
BBX 6 10 0 -2
BITMAP
60
10
60
10
60
00
00
00
00
00
ENDCHAR
STARTCHAR char180
ENCODING 180
SWIDTH 576 0
DWIDTH 6 0
BBX 6 10 0 -2
BITMAP
10
20
00
00
00
00
00
00
00
00
ENDCHAR
STARTCHAR char181
ENCODING 181
SWIDTH 576 0
DWIDTH 6 0
BBX 6 10 0 -2
BITMAP
00
00
00
24
24
48
48
74
40
80
ENDCHAR
STARTCHAR char182
ENCODING 182
SWIDTH 576 0
DWIDTH 6 0
BBX 6 10 0 -2
BITMAP
00
7C
E8
E8
68
28
50
50
50
50
ENDCHAR
STARTCHAR char183
ENCODING 183
SWIDTH 576 0
DWIDTH 6 0
BBX 6 10 0 -2
BITMAP
00
00
00
00
20
00
00
00
00
00
ENDCHAR
STARTCHAR char184
ENCODING 184
SWIDTH 576 0
DWIDTH 6 0
BBX 6 10 0 -2
BITMAP
00
00
00
00
00
00
00
30
10
20
ENDCHAR
STARTCHAR char185
ENCODING 185
SWIDTH 576 0
DWIDTH 6 0
BBX 6 10 0 -2
BITMAP
20
60
20
20
70
00
00
00
00
00
ENDCHAR
STARTCHAR char186
ENCODING 186
SWIDTH 576 0
DWIDTH 6 0
BBX 6 10 0 -2
BITMAP
20
50
50
20
00
00
00
00
00
00
ENDCHAR
STARTCHAR char187
ENCODING 187
SWIDTH 576 0
DWIDTH 6 0
BBX 6 10 0 -2
BITMAP
00
00
00
48
24
24
48
90
00
00
ENDCHAR
STARTCHAR char188
ENCODING 188
SWIDTH 576 0
DWIDTH 6 0
BBX 6 10 0 -2
BITMAP
04
44
48
50
14
2C
5C
44
80
00
ENDCHAR
STARTCHAR char189
ENCODING 189
SWIDTH 576 0
DWIDTH 6 0
BBX 6 10 0 -2
BITMAP
04
44
48
50
1C
24
48
4C
80
00
ENDCHAR
STARTCHAR char190
ENCODING 190
SWIDTH 576 0
DWIDTH 6 0
BBX 6 10 0 -2
BITMAP
84
44
C8
50
94
2C
5C
44
80
00
ENDCHAR
STARTCHAR char191
ENCODING 191
SWIDTH 576 0
DWIDTH 6 0
BBX 6 10 0 -2
BITMAP
00
10
00
20
40
80
88
70
00
00
ENDCHAR
STARTCHAR char192
ENCODING 192
SWIDTH 576 0
DWIDTH 6 0
BBX 6 10 0 -2
BITMAP
20
10
00
10
28
78
88
88
00
00
ENDCHAR
STARTCHAR char193
ENCODING 193
SWIDTH 576 0
DWIDTH 6 0
BBX 6 10 0 -2
BITMAP
10
20
00
10
28
78
88
88
00
00
ENDCHAR
STARTCHAR char194
ENCODING 194
SWIDTH 576 0
DWIDTH 6 0
BBX 6 10 0 -2
BITMAP
10
28
00
10
28
78
88
88
00
00
ENDCHAR
STARTCHAR char195
ENCODING 195
SWIDTH 576 0
DWIDTH 6 0
BBX 6 10 0 -2
BITMAP
14
28
00
10
28
78
88
88
00
00
ENDCHAR
STARTCHAR char196
ENCODING 196
SWIDTH 576 0
DWIDTH 6 0
BBX 6 10 0 -2
BITMAP
00
28
00
10
28
78
88
88
00
00
ENDCHAR
STARTCHAR char197
ENCODING 197
SWIDTH 576 0
DWIDTH 6 0
BBX 6 10 0 -2
BITMAP
10
28
10
10
28
78
88
88
00
00
ENDCHAR
STARTCHAR char198
ENCODING 198
SWIDTH 576 0
DWIDTH 6 0
BBX 6 10 0 -2
BITMAP
00
3C
50
50
78
A0
A0
B8
00
00
ENDCHAR
STARTCHAR char199
ENCODING 199
SWIDTH 576 0
DWIDTH 6 0
BBX 6 10 0 -2
BITMAP
00
38
44
40
40
80
88
70
20
40
ENDCHAR
STARTCHAR char200
ENCODING 200
SWIDTH 576 0
DWIDTH 6 0
BBX 6 10 0 -2
BITMAP
20
10
00
7C
40
F0
80
F8
00
00
ENDCHAR
STARTCHAR char201
ENCODING 201
SWIDTH 576 0
DWIDTH 6 0
BBX 6 10 0 -2
BITMAP
10
20
00
7C
40
F0
80
F8
00
00
ENDCHAR
STARTCHAR char202
ENCODING 202
SWIDTH 576 0
DWIDTH 6 0
BBX 6 10 0 -2
BITMAP
10
28
00
7C
40
F0
80
F8
00
00
ENDCHAR
STARTCHAR char203
ENCODING 203
SWIDTH 576 0
DWIDTH 6 0
BBX 6 10 0 -2
BITMAP
00
28
00
7C
40
F0
80
F8
00
00
ENDCHAR
STARTCHAR char204
ENCODING 204
SWIDTH 576 0
DWIDTH 6 0
BBX 6 10 0 -2
BITMAP
20
10
00
38
10
20
20
70
00
00
ENDCHAR
STARTCHAR char205
ENCODING 205
SWIDTH 576 0
DWIDTH 6 0
BBX 6 10 0 -2
BITMAP
10
20
00
38
10
20
20
70
00
00
ENDCHAR
STARTCHAR char206
ENCODING 206
SWIDTH 576 0
DWIDTH 6 0
BBX 6 10 0 -2
BITMAP
10
28
00
38
10
20
20
70
00
00
ENDCHAR
STARTCHAR char207
ENCODING 207
SWIDTH 576 0
DWIDTH 6 0
BBX 6 10 0 -2
BITMAP
00
28
00
38
10
20
20
70
00
00
ENDCHAR
STARTCHAR char208
ENCODING 208
SWIDTH 576 0
DWIDTH 6 0
BBX 6 10 0 -2
BITMAP
00
38
24
24
F4
48
48
70
00
00
ENDCHAR
STARTCHAR char209
ENCODING 209
SWIDTH 576 0
DWIDTH 6 0
BBX 6 10 0 -2
BITMAP
14
28
00
64
54
88
88
88
00
00
ENDCHAR
STARTCHAR char210
ENCODING 210
SWIDTH 576 0
DWIDTH 6 0
BBX 6 10 0 -2
BITMAP
20
10
00
38
44
88
88
70
00
00
ENDCHAR
STARTCHAR char211
ENCODING 211
SWIDTH 576 0
DWIDTH 6 0
BBX 6 10 0 -2
BITMAP
10
20
00
38
44
88
88
70
00
00
ENDCHAR
STARTCHAR char212
ENCODING 212
SWIDTH 576 0
DWIDTH 6 0
BBX 6 10 0 -2
BITMAP
10
28
00
38
44
88
88
70
00
00
ENDCHAR
STARTCHAR char213
ENCODING 213
SWIDTH 576 0
DWIDTH 6 0
BBX 6 10 0 -2
BITMAP
14
28
00
38
44
88
88
70
00
00
ENDCHAR
STARTCHAR char214
ENCODING 214
SWIDTH 576 0
DWIDTH 6 0
BBX 6 10 0 -2
BITMAP
00
28
00
38
44
88
88
70
00
00
ENDCHAR
STARTCHAR char215
ENCODING 215
SWIDTH 576 0
DWIDTH 6 0
BBX 6 10 0 -2
BITMAP
00
00
44
28
30
50
88
00
00
00
ENDCHAR
STARTCHAR char216
ENCODING 216
SWIDTH 576 0
DWIDTH 6 0
BBX 6 10 0 -2
BITMAP
00
34
48
58
68
68
48
B0
00
00
ENDCHAR
STARTCHAR char217
ENCODING 217
SWIDTH 576 0
DWIDTH 6 0
BBX 6 10 0 -2
BITMAP
20
10
00
44
44
88
88
70
00
00
ENDCHAR
STARTCHAR char218
ENCODING 218
SWIDTH 576 0
DWIDTH 6 0
BBX 6 10 0 -2
BITMAP
10
20
00
44
44
88
88
70
00
00
ENDCHAR
STARTCHAR char219
ENCODING 219
SWIDTH 576 0
DWIDTH 6 0
BBX 6 10 0 -2
BITMAP
10
28
00
44
44
88
88
70
00
00
ENDCHAR
STARTCHAR char220
ENCODING 220
SWIDTH 576 0
DWIDTH 6 0
BBX 6 10 0 -2
BITMAP
00
28
00
44
44
88
88
70
00
00
ENDCHAR
STARTCHAR char221
ENCODING 221
SWIDTH 576 0
DWIDTH 6 0
BBX 6 10 0 -2
BITMAP
08
10
44
44
48
70
20
20
00
00
ENDCHAR
STARTCHAR char222
ENCODING 222
SWIDTH 576 0
DWIDTH 6 0
BBX 6 10 0 -2
BITMAP
00
20
20
38
24
48
70
40
40
00
ENDCHAR
STARTCHAR char223
ENCODING 223
SWIDTH 576 0
DWIDTH 6 0
BBX 6 10 0 -2
BITMAP
00
38
24
24
38
48
48
70
80
00
ENDCHAR
STARTCHAR char224
ENCODING 224
SWIDTH 576 0
DWIDTH 6 0
BBX 6 10 0 -2
BITMAP
20
10
00
38
04
78
88
78
00
00
ENDCHAR
STARTCHAR char225
ENCODING 225
SWIDTH 576 0
DWIDTH 6 0
BBX 6 10 0 -2
BITMAP
10
20
00
38
04
78
88
78
00
00
ENDCHAR
STARTCHAR char226
ENCODING 226
SWIDTH 576 0
DWIDTH 6 0
BBX 6 10 0 -2
BITMAP
10
28
00
38
04
78
88
78
00
00
ENDCHAR
STARTCHAR char227
ENCODING 227
SWIDTH 576 0
DWIDTH 6 0
BBX 6 10 0 -2
BITMAP
14
28
00
38
04
78
88
78
00
00
ENDCHAR
STARTCHAR char228
ENCODING 228
SWIDTH 576 0
DWIDTH 6 0
BBX 6 10 0 -2
BITMAP
00
28
00
38
04
78
88
78
00
00
ENDCHAR
STARTCHAR char229
ENCODING 229
SWIDTH 576 0
DWIDTH 6 0
BBX 6 10 0 -2
BITMAP
10
28
10
38
04
78
88
78
00
00
ENDCHAR
STARTCHAR char230
ENCODING 230
SWIDTH 576 0
DWIDTH 6 0
BBX 6 10 0 -2
BITMAP
00
00
00
28
14
78
A0
58
00
00
ENDCHAR
STARTCHAR char231
ENCODING 231
SWIDTH 576 0
DWIDTH 6 0
BBX 6 10 0 -2
BITMAP
00
00
00
3C
40
80
80
78
20
40
ENDCHAR
STARTCHAR char232
ENCODING 232
SWIDTH 576 0
DWIDTH 6 0
BBX 6 10 0 -2
BITMAP
20
10
00
38
44
F8
80
78
00
00
ENDCHAR
STARTCHAR char233
ENCODING 233
SWIDTH 576 0
DWIDTH 6 0
BBX 6 10 0 -2
BITMAP
10
20
00
38
44
F8
80
78
00
00
ENDCHAR
STARTCHAR char234
ENCODING 234
SWIDTH 576 0
DWIDTH 6 0
BBX 6 10 0 -2
BITMAP
10
28
00
38
44
F8
80
78
00
00
ENDCHAR
STARTCHAR char235
ENCODING 235
SWIDTH 576 0
DWIDTH 6 0
BBX 6 10 0 -2
BITMAP
00
28
00
38
44
F8
80
78
00
00
ENDCHAR
STARTCHAR char236
ENCODING 236
SWIDTH 576 0
DWIDTH 6 0
BBX 6 10 0 -2
BITMAP
20
10
00
30
10
20
20
20
00
00
ENDCHAR
STARTCHAR char237
ENCODING 237
SWIDTH 576 0
DWIDTH 6 0
BBX 6 10 0 -2
BITMAP
10
20
00
30
10
20
20
20
00
00
ENDCHAR
STARTCHAR char238
ENCODING 238
SWIDTH 576 0
DWIDTH 6 0
BBX 6 10 0 -2
BITMAP
10
28
00
30
10
20
20
20
00
00
ENDCHAR
STARTCHAR char239
ENCODING 239
SWIDTH 576 0
DWIDTH 6 0
BBX 6 10 0 -2
BITMAP
00
28
00
30
10
20
20
20
00
00
ENDCHAR
STARTCHAR char240
ENCODING 240
SWIDTH 576 0
DWIDTH 6 0
BBX 6 10 0 -2
BITMAP
00
34
08
08
38
48
90
70
00
00
ENDCHAR
STARTCHAR char241
ENCODING 241
SWIDTH 576 0
DWIDTH 6 0
BBX 6 10 0 -2
BITMAP
14
28
00
78
44
88
88
88
00
00
ENDCHAR
STARTCHAR char242
ENCODING 242
SWIDTH 576 0
DWIDTH 6 0
BBX 6 10 0 -2
BITMAP
20
10
00
38
44
88
88
70
00
00
ENDCHAR
STARTCHAR char243
ENCODING 243
SWIDTH 576 0
DWIDTH 6 0
BBX 6 10 0 -2
BITMAP
10
20
00
38
44
88
88
70
00
00
ENDCHAR
STARTCHAR char244
ENCODING 244
SWIDTH 576 0
DWIDTH 6 0
BBX 6 10 0 -2
BITMAP
10
28
00
38
44
88
88
70
00
00
ENDCHAR
STARTCHAR char245
ENCODING 245
SWIDTH 576 0
DWIDTH 6 0
BBX 6 10 0 -2
BITMAP
28
50
00
38
44
88
88
70
00
00
ENDCHAR
STARTCHAR char246
ENCODING 246
SWIDTH 576 0
DWIDTH 6 0
BBX 6 10 0 -2
BITMAP
00
28
00
38
44
88
88
70
00
00
ENDCHAR
STARTCHAR char247
ENCODING 247
SWIDTH 576 0
DWIDTH 6 0
BBX 6 10 0 -2
BITMAP
00
00
10
00
FC
00
20
00
00
00
ENDCHAR
STARTCHAR char248
ENCODING 248
SWIDTH 576 0
DWIDTH 6 0
BBX 6 10 0 -2
BITMAP
00
00
00
34
48
78
48
B0
00
00
ENDCHAR
STARTCHAR char249
ENCODING 249
SWIDTH 576 0
DWIDTH 6 0
BBX 6 10 0 -2
BITMAP
20
10
00
44
44
88
88
78
00
00
ENDCHAR
STARTCHAR char250
ENCODING 250
SWIDTH 576 0
DWIDTH 6 0
BBX 6 10 0 -2
BITMAP
10
20
00
44
44
88
88
78
00
00
ENDCHAR
STARTCHAR char251
ENCODING 251
SWIDTH 576 0
DWIDTH 6 0
BBX 6 10 0 -2
BITMAP
10
28
00
44
44
88
88
78
00
00
ENDCHAR
STARTCHAR char252
ENCODING 252
SWIDTH 576 0
DWIDTH 6 0
BBX 6 10 0 -2
BITMAP
00
28
00
44
44
88
88
78
00
00
ENDCHAR
STARTCHAR char253
ENCODING 253
SWIDTH 576 0
DWIDTH 6 0
BBX 6 10 0 -2
BITMAP
10
20
00
44
44
88
88
78
08
70
ENDCHAR
STARTCHAR char254
ENCODING 254
SWIDTH 576 0
DWIDTH 6 0
BBX 6 10 0 -2
BITMAP
00
40
40
78
44
88
88
F0
80
80
ENDCHAR
STARTCHAR char255
ENCODING 255
SWIDTH 576 0
DWIDTH 6 0
BBX 6 10 0 -2
BITMAP
00
28
00
44
44
88
88
78
08
70
ENDCHAR
ENDFONT
